# AST/ASF file generated using VICON BodyLanguage
# -----------------------------------------------
:version 1.10
:name VICON
:units
  mass 1.0
  length 0.45
  angle deg
:documentation
   .ast/.asf automatically generated from VICON data using
   VICON BodyBuilder and BodyLanguage model FoxedUp or BRILLIANT.MOD
:root
   order TX TY TZ RX RY RZ
   axis XYZ
   position 0 0 0  
   orientation 0 0 0 
:bonedata
  begin
     id 1 
     name lhipjoint
     direction 0.78388 -0.462562 0.414208 
     length 3.01181 
     axis 0 0 0  XYZ
  end
  begin
     id 2 
     name lfemur
     direction 0.34202 -0.939693 0  
     length 6.04673  
     axis 0 0 20  XYZ
    dof rx ry rz
    limits (-160.0 20.0)
           (-70.0 70.0)
           (-60.0 70.0)
  end
  begin
     id 3 
     name ltibia
     direction 0.34202 -0.939693 0   
     length 7.211   
     axis 0 0 20   XYZ
    dof rx
    limits (-10.0 170.0)
  end
  begin
     id 4 
     name lfoot
     direction 0.121887 -0.334882 0.934344   
     length 2.13567   
     axis -90 7.62852e-016 20   XYZ
    dof rx rz
    limits (-45.0 90.0)
           (-70.0 20.0)
  end
  begin
     id 5 
     name ltoes
     direction 1.53555e-011 -4.2179e-011 1   
     length 1.05957   
     axis -90 7.62852e-016 20   XYZ
    dof rx
    limits (-90.0 20.0)
  end
  begin
     id 6 
     name rhipjoint
     direction -0.769387 -0.475875 0.426129   
     length 2.92756  
     axis 0 0 0  XYZ 
  end
  begin
     id 7 
     name rfemur
     direction -0.34202 -0.939693 0   
     length 6.35468   
     axis 0 0 -20   XYZ
    dof rx ry rz
    limits (-160.0 20.0)
           (-70.0 70.0)
           (-70.0 60.0)
  end
  begin
     id 8 
     name rtibia
     direction -0.34202 -0.939693 0   
     length 7.37886   
     axis 0 0 -20   XYZ
    dof rx
    limits (-10.0 170.0)
 end
 begin
     id 9 
     name rfoot
     direction -0.101763 -0.279592 0.954711   
     length 2.21478  
     axis -90 -7.62852e-016 -20   XYZ
    dof rx rz
    limits (-45.0 90.0)
           (-20.0 70.0)
  end
  begin
     id 10 
     name rtoes
     direction -1.53494e-011 -4.21851e-011 1   
     length 1.10506   
     axis -90 -7.62852e-016 -20   XYZ
    dof rx
    limits (-90.0 20.0)
  end
  begin
     id 11 
     name lowerback
     direction 0.00747405 0.999267 0.0375481   
     length 2.13259   
     axis 0 0 0   XYZ
    dof rx ry rz
    limits (-20.0 45.0)
           (-30.0 30.0)
           (-30.0 30.0)
  end
  begin
     id 12 
     name upperback
     direction 0.00661626 0.996177 0.0871029   
     length 2.10528   
     axis 0 0 0   XYZ
    dof rx ry rz
    limits (-20.0 45.0)
           (-30.0 30.0)
           (-30.0 30.0)
  end
  begin
     id 13 
     name thorax
     direction 0.00320659 0.997679 0.0680167   
     length 2.11338   
     axis 0 0 0   XYZ
    dof rx ry rz
    limits (-20.0 45.0)
           (-30.0 30.0)
           (-30.0 30.0)
  end
  begin
     id 14 
     name lowerneck
     direction 0.0374841 0.973033 0.227602   
     length 1.42765   
     axis 0 0 0   XYZ
    dof rx ry rz
    limits (-20.0 45.0)
           (-30.0 30.0)
           (-30.0 30.0)
  end
  begin
     id 15 
     name upperneck
     direction 0.00481585 0.989155 -0.146795   
     length 1.47593   
     axis 0 0 0   XYZ
    dof rx ry rz
    limits (-20.0 45.0)
           (-30.0 30.0)
           (-30.0 30.0)
  end
  begin
     id 16
     name head
     direction -0.00292522 0.997206 -0.0746423  
     length 1.48116  
     axis 0 0 0   XYZ
    dof rx ry rz
    limits (-20.0 45.0)
           (-30.0 30.0)
           (-30.0 30.0)
  end
  begin
     id 17 
     name lclavicle
     direction 0.951444 0.305606 0.0368784  
     length 3.01855  
     axis 0 0 0   XYZ
    dof ry rz
    limits (-20.0 10.0)
           (0.0 20.0)
  end
  begin
     id 18 
     name lhumerus
     direction 1 -4.48977e-011 2.61664e-027   
     length 5.52731   
     axis 180 -30 -90   XYZ
    dof rx ry rz
    limits (-60.0 90.0)
           (-90.0 90.0)
           (-90.0 90.0)
  end
  begin
     id 19
     name lradius
     direction 1 -4.48944e-011 8.22157e-027   
     length 3.11059   
     axis 180 -30 -90   XYZ
    dof rx
    limits (-10.0 170.0)
  end
  begin
     id 20
     name lwrist
     direction 1 -4.48976e-011 1.5779e-026   
     length 1.5553   
     axis -1.15221e-014 90 90   XYZ
    dof ry
    limits (-180.0 0.0)
 end
  begin
     id 21 
     name lhand
     direction 1 -4.49025e-011 3.1558e-026   
     length 0.419626   
     axis -2.01367e-014 90 90   XYZ
    dof rx rz
    limits (-90.0 90.0)
           (-45.0 45.0)
  end
  begin
     id 22 
     name lfingers
     direction 1 -4.4904e-011 6.31161e-026   
     length 0.338313   
     axis -4.02734e-014 90 90   XYZ
    dof rx
    limits (0.0 90.0)
  end
  begin
     id 23
     name lthumb
     direction 0.707107 -6.35004e-011 0.707107   
     length 0.485752   
     axis -90 45 2.85299e-015   XYZ
    dof rx rz
    limits (-45.0 45.0)
           (-45.0 45.0)
  end
  begin
     id 24 
     name rclavicle
     direction -0.968876 0.223791 0.105816   
     length 3.04177  
     axis 0 0 0   XYZ 
    dof ry rz
    limits (-10.0 20.0)
           (-20.0 0.0)
  end
  begin
     id 25 
     name rhumerus
     direction -1 -4.48962e-011 -1.01384e-027  
     length 5.25396   
     axis 180 30 90   XYZ
    dof rx ry rz
    limits (-90.0 60.0)
           (-90.0 90.0)
           (-90.0 90.0)
  end
  begin
     id 26 
     name rradius
     direction -1 -4.48955e-011 8.88542e-027   
     length 3.10567   
     axis 180 30 90   XYZ
    dof rx
    limits (-10.0 170.0)
  end
  begin
     id 27 
     name rwrist
     direction -1 -4.48994e-011 1.5779e-026   
     length 1.55283   
     axis -1.15221e-014 -90 -90   XYZ
    dof ry
    limits (-180.0 0.0)
  end
  begin
     id 28
     name rhand
     direction -1 -4.48891e-011 3.1558e-026   
     length 0.498676   
     axis -2.01367e-014 -90 -90   XYZ
    dof rx rz
    limits (-90.0 90.0)
           (-45.0 45.0)
  end
  begin
     id 29
     name rfingers
     direction -1 -4.48972e-011 6.31161e-026   
     length 0.402045   
     axis -4.02734e-014 -90 -90   XYZ
    dof rx
    limits (0.0 90.0)
  end
  begin
     id 30
     name rthumb
     direction -0.707107 -6.34849e-011 0.707107   
     length 0.577259   
     axis -90 -45 -2.85299e-015   XYZ
    dof rx rz
    limits (-45.0 45.0)
           (-45.0 45.0)
  end
:hierarchy
  begin
    root lhipjoint rhipjoint lowerback
    lhipjoint lfemur
    lfemur ltibia
    ltibia lfoot
    lfoot ltoes
    rhipjoint rfemur
    rfemur rtibia
    rtibia rfoot
    rfoot rtoes
    lowerback upperback
    upperback thorax
    thorax lowerneck lclavicle rclavicle
    lowerneck upperneck
    upperneck head
    lclavicle lhumerus
    lhumerus lradius
    lradius lwrist
    lwrist lhand lthumb
    lhand lfingers
    rclavicle rhumerus
    rhumerus rradius
    rradius rwrist
    rwrist rhand rthumb
    rhand rfingers
  end

#!OML:ASF H:\Pregnant\Project 1\Capture day 1\Session 1\femalepreg.ASF
:FULLY-SPECIFIED
:DEGREES
35
root 9.63205 15.8099 -2.14295 20.3782 -1.70475 -2.79151
lowerback -17.9243 1.35594 7.96267
upperback -5.08301 0.376214 -0.381894
thorax 4.59699 0.208951 -4.8528
lowerneck -12.7304 0.24372 3.18705
upperneck 31.8722 -0.194783 -1.06002
head 12.6962 0.148654 -0.994905
rclavicle -6.62823e-015 1.70831e-014
rhumerus -39.4244 -10.8034 -74.6316
rradius 26.5359
rwrist -1.3383
rhand -14.5729 -16.4734
rfingers 7.12502
rthumb 11.5767 -46.1337
lclavicle -6.62823e-015 1.70831e-014
lhumerus -35.1966 -13.1377 87.2327
lradius 32.4353
lwrist 41.8585
lhand -24.9365 -5.05452
lfingers 7.12502
lthumb 1.57288 24.9194
rfemur -32.0738 18.761 23.596
rtibia 35.0186
rfoot -18.1711 -12.1254
rtoes -6.55364
lfemur -41.1971 -8.59869 -15.0252
ltibia 48.1151
lfoot -12.3672 5.20655
ltoes -23.3294
36
root 9.62695 15.8037 -2.13053 20.3788 -1.40766 -3.0505
lowerback -17.6545 1.41648 8.43298
upperback -4.99325 0.387772 -0.26225
thorax 4.54993 0.21785 -4.98844
lowerneck -12.732 0.286696 3.19841
upperneck 31.8037 -0.112762 -1.119
head 12.6699 0.179193 -1.00691
rclavicle 1.07615e-014 -3.40419e-015
rhumerus -39.2873 -10.7293 -74.4118
rradius 26.5172
rwrist -1.26279
rhand -14.6852 -16.5257
rfingers 7.12502
rthumb 11.4684 -46.192
lclavicle 1.07615e-014 -3.40419e-015
lhumerus -35.0998 -12.603 87.0905
lradius 32.6788
lwrist 41.9315
lhand -25.1386 -4.69875
lfingers 7.12502
lthumb 1.37766 25.2766
rfemur -31.8473 18.4792 24.0279
rtibia 34.7825
rfoot -18.1473 -11.9871
rtoes -6.61517
lfemur -42.4669 -8.4778 -14.7737
ltibia 49.9633
lfoot -11.6718 5.11601
ltoes -23.2102
37
root 9.62177 15.7972 -2.11674 20.3801 -1.13876 -3.27484
lowerback -17.4095 1.46384 8.83193
upperback -4.88809 0.393089 -0.133823
thorax 4.5318 0.225212 -5.07519
lowerneck -12.7388 0.329469 3.19654
upperneck 31.7155 -0.0284291 -1.17652
head 12.6367 0.209139 -1.01555
rclavicle 4.26145e-015 -1.43125e-014
rhumerus -39.0966 -10.6556 -74.1766
rradius 26.471
rwrist -1.15432
rhand -14.8014 -16.589
rfingers 7.12502
rthumb 11.3562 -46.2615
lclavicle 4.26145e-015 -1.43125e-014
lhumerus -35.0049 -12.1039 86.9872
lradius 32.9038
lwrist 41.9852
lhand -25.3329 -4.32598
lfingers 7.12502
lthumb 1.19 25.6505
rfemur -31.6493 18.2004 24.417
rtibia 34.5963
rfoot -18.1493 -11.8451
rtoes -6.68682
lfemur -43.6862 -8.36958 -14.5655
ltibia 51.6808
lfoot -11.0048 5.02846
ltoes -23.192
38
root 9.61648 15.7908 -2.10127 20.3831 -0.900721 -3.4646
lowerback -17.1816 1.50317 9.1658
upperback -4.77877 0.398859 -0.00668183
thorax 4.52743 0.23341 -5.12607
lowerneck -12.7337 0.369197 3.19698
upperneck 31.6144 0.0503175 -1.23226
head 12.5957 0.236988 -1.02457
rclavicle -8.29305e-016 -4.07509e-015
rhumerus -38.8841 -10.5928 -73.9331
rradius 26.4089
rwrist -1.01357
rhand -14.9241 -16.6718
rfingers 7.12502
rthumb 11.2379 -46.3508
lclavicle -8.29305e-016 -4.07509e-015
lhumerus -34.9348 -11.6594 86.9155
lradius 33.1154
lwrist 42.0207
lhand -25.4835 -4.069
lfingers 7.12502
lthumb 1.04456 25.9082
rfemur -31.4771 17.9282 24.7628
rtibia 34.456
rfoot -18.1745 -11.7035
rtoes -6.76759
lfemur -44.8466 -8.26606 -14.4042
ltibia 53.2486
lfoot -10.4214 4.87196
ltoes -23.3139
39
root 9.61111 15.7846 -2.08348 20.3873 -0.698447 -3.61786
lowerback -16.9861 1.53595 9.42862
upperback -4.65509 0.404985 0.121419
thorax 4.55601 0.243596 -5.13542
lowerneck -12.731 0.406147 3.19576
upperneck 31.5029 0.125145 -1.28856
head 12.5509 0.262728 -1.03399
rclavicle -3.27373e-015 7.85199e-015
rhumerus -38.6245 -10.5458 -73.6785
rradius 26.3217
rwrist -0.841313
rhand -15.0431 -16.7534
rfingers 7.12502
rthumb 11.1232 -46.4386
lclavicle -3.27373e-015 7.85199e-015
lhumerus -34.8757 -11.2638 86.8747
lradius 33.3126
lwrist 42.0495
lhand -25.5757 -4.00081
lfingers 7.12502
lthumb 0.955525 25.9768
rfemur -31.3277 17.6766 25.0596
rtibia 34.3625
rfoot -18.2232 -11.5729
rtoes -6.86049
lfemur -45.9426 -8.15611 -14.2968
ltibia 54.6527
lfoot -9.97666 4.56395
ltoes -23.5161
40
root 9.60568 15.7774 -2.0633 20.3976 -0.531522 -3.73364
lowerback -16.8204 1.56299 9.62324
upperback -4.52754 0.41238 0.246509
thorax 4.6051 0.255276 -5.10898
lowerneck -12.7171 0.440818 3.19638
upperneck 31.3898 0.195577 -1.34318
head 12.5032 0.286947 -1.04368
rclavicle -3.35449e-016 1.78906e-014
rhumerus -38.3424 -10.5046 -73.4205
rradius 26.225
rwrist -0.648227
rhand -15.1606 -16.854
rfingers 7.12502
rthumb 11.0098 -46.5453
lclavicle -3.35449e-016 1.78906e-014
lhumerus -34.838 -10.9285 86.8634
lradius 33.4873
lwrist 42.096
lhand -25.596 -4.13742
lfingers 7.12502
lthumb 0.935959 25.8403
rfemur -31.2023 17.454 25.3037
rtibia 34.3065
rfoot -18.2867 -11.4578
rtoes -6.9552
lfemur -46.9828 -8.01535 -14.2523
ltibia 55.881
lfoot -9.69161 4.01922
ltoes -23.7327
41
root 9.60028 15.7702 -2.04019 20.4119 -0.403501 -3.81355
lowerback -16.6835 1.58662 9.75374
upperback -4.39392 0.422963 0.366872
thorax 4.6769 0.269501 -5.05061
lowerneck -12.6996 0.473868 3.20068
upperneck 31.2797 0.261976 -1.39663
head 12.456 0.309993 -1.05418
rclavicle 3.34207e-015 -2.64384e-014
rhumerus -38.0368 -10.4774 -73.1589
rradius 26.1225
rwrist -0.436689
rhand -15.266 -16.9594
rfingers 7.12502
rthumb 10.9082 -46.656
lclavicle 3.34207e-015 -2.64384e-014
lhumerus -34.8156 -10.6555 86.8772
lradius 33.6385
lwrist 42.1796
lhand -25.55 -4.41315
lfingers 7.12502
lthumb 0.980356 25.5643
rfemur -31.0875 17.2598 25.4974
rtibia 34.2716
rfoot -18.3591 -11.354
rtoes -7.0669
lfemur -47.9593 -7.85292 -14.2694
ltibia 56.9129
lfoot -9.55023 3.23625
ltoes -23.909
42
root 9.5947 15.7654 -2.01395 20.4355 -0.307885 -3.86002
lowerback -16.5789 1.60388 9.82339
upperback -4.25837 0.431629 0.485193
thorax 4.76791 0.28334 -4.96037
lowerneck -12.6789 0.507379 3.20929
upperneck 31.1779 0.328666 -1.45348
head 12.4118 0.333293 -1.06676
rclavicle -9.405e-015 -5.96354e-016
rhumerus -37.7112 -10.4576 -72.896
rradius 26.0194
rwrist -0.208206
rhand -15.3737 -17.0481
rfingers 7.12502
rthumb 10.8043 -46.7502
lclavicle -9.405e-015 -5.96354e-016
lhumerus -34.8057 -10.4331 86.9138
lradius 33.7545
lwrist 42.3023
lhand -25.4405 -4.70687
lfingers 7.12502
lthumb 1.08613 25.2701
rfemur -30.9724 17.0915 25.6429
rtibia 34.2318
rfoot -18.4307 -11.2562
rtoes -7.17868
lfemur -48.8587 -7.69982 -14.3347
ltibia 57.7202
lfoot -9.51211 2.26267
ltoes -24.0076
43
root 9.58905 15.7636 -1.98472 20.4751 -0.241243 -3.87347
lowerback -16.5053 1.61717 9.83944
upperback -4.12833 0.440989 0.596555
thorax 4.86982 0.297334 -4.84716
lowerneck -12.6589 0.543429 3.23144
upperneck 31.0992 0.397116 -1.51667
head 12.3774 0.358329 -1.0841
rclavicle -3.27995e-015 -2.88238e-014
rhumerus -37.3843 -10.4463 -72.6363
rradius 25.9286
rwrist 0.0238045
rhand -15.4779 -17.1307
rfingers 7.12502
rthumb 10.7038 -46.8381
lclavicle -3.27995e-015 -2.88238e-014
lhumerus -34.814 -10.2724 86.9704
lradius 33.8344
lwrist 42.4684
lhand -25.2893 -4.94857
lfingers 7.12502
lthumb 1.23214 25.0276
rfemur -30.8536 16.9503 25.7386
rtibia 34.1647
rfoot -18.4869 -11.1647
rtoes -7.29541
lfemur -49.6812 -7.56628 -14.4461
ltibia 58.2877
lfoot -9.51837 1.18021
ltoes -24.0666
